HIERARCHY
ROOT Hips
{
    OFFSET   0.000000   0.000000   0.000000
    CHANNELS 6 Xposition Yposition Zposition Zrotation Xrotation Yrotation
    JOINT Chest
    {
        OFFSET   0.000000   8.007230   0.000000
        CHANNELS 3 Zrotation Xrotation Yrotation
        JOINT Chest2
        {
            OFFSET   0.000000  22.077100   0.000000
            CHANNELS 3 Zrotation Xrotation Yrotation
            JOINT Neck
            {
                OFFSET   0.000000  23.254800  -0.000021
                CHANNELS 3 Zrotation Xrotation Yrotation
                JOINT Head
                {
                    OFFSET   0.000000  14.370000   1.956610
                    CHANNELS 3 Zrotation Xrotation Yrotation
                    End Site
                    {
                        OFFSET   0.000000  19.566000   0.000000
                    }
                }
            }
            JOINT LeftCollar
            {
                OFFSET   3.911900  19.017000  -0.467063
                CHANNELS 3 Zrotation Xrotation Yrotation
                JOINT LeftShoulder
                {
                    OFFSET  10.383700   0.000000   0.000000
                    CHANNELS 3 Zrotation Xrotation Yrotation
                    JOINT LeftElbow
                    {
                        OFFSET  26.662100   0.001529   0.000325
                        CHANNELS 3 Zrotation Xrotation Yrotation
                        JOINT LeftWrist
                        {
                            OFFSET  28.869000  -0.000011  -0.000096
                            CHANNELS 3 Zrotation Xrotation Yrotation
                            JOINT LeftFinger0
                            {
                                OFFSET   2.044650  -2.323460   3.252850
                                CHANNELS 3 Zrotation Xrotation Yrotation
                                JOINT LeftFinger01
                                {
                                    OFFSET   3.088130   0.000000   0.000000
                                    CHANNELS 3 Zrotation Xrotation Yrotation
                                    JOINT LeftFinger02
                                    {
                                        OFFSET   2.639460   0.000000   0.000000
                                        CHANNELS 3 Zrotation Xrotation Yrotation
                                        End Site
                                        {
                                            OFFSET   2.582190   0.000000   0.000000
                                        }
                                    }
                                }
                            }
                            JOINT LeftFinger1
                            {
                                OFFSET   8.364480   0.000000   3.252850
                                CHANNELS 3 Zrotation Xrotation Yrotation
                                JOINT LeftFinger11
                                {
                                    OFFSET   4.646930   0.000000   0.000000
                                    CHANNELS 3 Zrotation Xrotation Yrotation
                                    JOINT LeftFinger12
                                    {
                                        OFFSET   2.323460   0.000000   0.000000
                                        CHANNELS 3 Zrotation Xrotation Yrotation
                                        End Site
                                        {
                                            OFFSET   2.273050   0.000000   0.000000
                                        }
                                    }
                                }
                            }
                            JOINT LeftFinger2
                            {
                                OFFSET   8.364480   0.000016   1.078090
                                CHANNELS 3 Zrotation Xrotation Yrotation
                                JOINT LeftFinger21
                                {
                                    OFFSET   5.111620   0.000000   0.000000
                                    CHANNELS 3 Zrotation Xrotation Yrotation
                                    JOINT LeftFinger22
                                    {
                                        OFFSET   2.788160   0.000017   0.000000
                                        CHANNELS 3 Zrotation Xrotation Yrotation
                                        End Site
                                        {
                                            OFFSET   2.727660   0.000000   0.000000
                                        }
                                    }
                                }
                            }
                            JOINT LeftFinger3
                            {
                                OFFSET   7.899780   0.000015  -1.078090
                                CHANNELS 3 Zrotation Xrotation Yrotation
                                JOINT LeftFinger31
                                {
                                    OFFSET   4.646920   0.000000   0.000000
                                    CHANNELS 3 Zrotation Xrotation Yrotation
                                    JOINT LeftFinger32
                                    {
                                        OFFSET   2.323470   0.000000   0.000000
                                        CHANNELS 3 Zrotation Xrotation Yrotation
                                        End Site
                                        {
                                            OFFSET   2.273050   0.000000   0.000000
                                        }
                                    }
                                }
                            }
                            JOINT LeftFinger4
                            {
                                OFFSET   7.435090   0.000000  -3.252850
                                CHANNELS 3 Zrotation Xrotation Yrotation
                                JOINT LeftFinger41
                                {
                                    OFFSET   3.717550   0.000000   0.000000
                                    CHANNELS 3 Zrotation Xrotation Yrotation
                                    JOINT LeftFinger42
                                    {
                                        OFFSET   1.858760   0.000000   0.000000
                                        CHANNELS 3 Zrotation Xrotation Yrotation
                                        End Site
                                        {
                                            OFFSET   1.818440   0.000000   0.000000
                                        }
                                    }
                                }
                            }
                        }
                    }
                }
            }
            JOINT RightCollar
            {
                OFFSET  -3.911900  19.017000  -0.467062
                CHANNELS 3 Zrotation Xrotation Yrotation
                JOINT RightShoulder
                {
                    OFFSET -10.383700   0.000015   0.000000
                    CHANNELS 3 Zrotation Xrotation Yrotation
                    JOINT RightElbow
                    {
                        OFFSET -26.662100   0.001341   0.000385
                        CHANNELS 3 Zrotation Xrotation Yrotation
                        JOINT RightWrist
                        {
                            OFFSET -28.869000   0.000025  -0.000080
                            CHANNELS 3 Zrotation Xrotation Yrotation
                            JOINT RightFinger0
                            {
                                OFFSET  -2.044650  -2.323490   3.252850
                                CHANNELS 3 Zrotation Xrotation Yrotation
                                JOINT RightFinger01
                                {
                                    OFFSET  -3.088130   0.000000   0.000000
                                    CHANNELS 3 Zrotation Xrotation Yrotation
                                    JOINT RightFinger02
                                    {
                                        OFFSET  -2.639460   0.000000   0.000000
                                        CHANNELS 3 Zrotation Xrotation Yrotation
                                        End Site
                                        {
                                            OFFSET  -2.582190   0.000000   0.000000
                                        }
                                    }
                                }
                            }
                            JOINT RightFinger1
                            {
                                OFFSET  -8.364480   0.000000   3.252850
                                CHANNELS 3 Zrotation Xrotation Yrotation
                                JOINT RightFinger11
                                {
                                    OFFSET  -4.646930   0.000000   0.000000
                                    CHANNELS 3 Zrotation Xrotation Yrotation
                                    JOINT RightFinger12
                                    {
                                        OFFSET  -2.323470   0.000000   0.000000
                                        CHANNELS 3 Zrotation Xrotation Yrotation
                                        End Site
                                        {
                                            OFFSET  -2.273050   0.000000   0.000000
                                        }
                                    }
                                }
                            }
                            JOINT RightFinger2
                            {
                                OFFSET  -8.364480   0.000000   1.078090
                                CHANNELS 3 Zrotation Xrotation Yrotation
                                JOINT RightFinger21
                                {
                                    OFFSET  -5.111610   0.000000   0.000000
                                    CHANNELS 3 Zrotation Xrotation Yrotation
                                    JOINT RightFinger22
                                    {
                                        OFFSET  -2.788160   0.000000   0.000000
                                        CHANNELS 3 Zrotation Xrotation Yrotation
                                        End Site
                                        {
                                            OFFSET  -2.727660   0.000000   0.000000
                                        }
                                    }
                                }
                            }
                            JOINT RightFinger3
                            {
                                OFFSET  -7.899780   0.000000  -1.078090
                                CHANNELS 3 Zrotation Xrotation Yrotation
                                JOINT RightFinger31
                                {
                                    OFFSET  -4.646920   0.000000   0.000000
                                    CHANNELS 3 Zrotation Xrotation Yrotation
                                    JOINT RightFinger32
                                    {
                                        OFFSET  -2.323470   0.000000   0.000000
                                        CHANNELS 3 Zrotation Xrotation Yrotation
                                        End Site
                                        {
                                            OFFSET  -2.273050   0.000000   0.000000
                                        }
                                    }
                                }
                            }
                            JOINT RightFinger4
                            {
                                OFFSET  -7.435090   0.000000  -3.252850
                                CHANNELS 3 Zrotation Xrotation Yrotation
                                JOINT RightFinger41
                                {
                                    OFFSET  -3.717550   0.000000   0.000000
                                    CHANNELS 3 Zrotation Xrotation Yrotation
                                    JOINT RightFinger42
                                    {
                                        OFFSET  -1.858770   0.000000   0.000000
                                        CHANNELS 3 Zrotation Xrotation Yrotation
                                        End Site
                                        {
                                            OFFSET  -1.818440   0.000000   0.000000
                                        }
                                    }
                                }
                            }
                        }
                    }
                }
            }
        }
    }
    JOINT LeftHip
    {
        OFFSET   9.783010   0.000000   0.000000
        CHANNELS 3 Zrotation Xrotation Yrotation
        JOINT LeftKnee
        {
            OFFSET   0.000070 -41.789100   0.000028
            CHANNELS 3 Zrotation Xrotation Yrotation
            JOINT LeftAnkle
            {
                OFFSET   0.000087 -41.133200  -0.000100
                CHANNELS 3 Zrotation Xrotation Yrotation
                JOINT LeftToe
                {
                    OFFSET   0.000000  -6.358960  14.674500
                    CHANNELS 3 Zrotation Xrotation Yrotation
                    End Site
                    {
                        OFFSET   0.000000   0.000000   3.913200
                    }
                }
            }
        }
    }
    JOINT RightHip
    {
        OFFSET  -9.783020   0.000000   0.000000
        CHANNELS 3 Zrotation Xrotation Yrotation
        JOINT RightKnee
        {
            OFFSET   0.000044 -41.789100  -0.000870
            CHANNELS 3 Zrotation Xrotation Yrotation
            JOINT RightAnkle
            {
                OFFSET  -0.000090 -41.133200  -0.000245
                CHANNELS 3 Zrotation Xrotation Yrotation
                JOINT RightToe
                {
                    OFFSET   0.000000  -6.358960  14.674500
                    CHANNELS 3 Zrotation Xrotation Yrotation
                    End Site
                    {
                        OFFSET   0.000000   0.000000   3.913200
                    }
                }
            }
        }
    }
}
MOTION
Frames: 5
Frame Time:   0.016667
 -0.501002  89.993500  -0.754328  -0.495824  -3.733770  -0.620631  -0.722442   3.383160   0.316961  -1.467500   6.761980   0.678489   1.537570   1.391590  -0.042158   2.529920   2.815750   8.096830  -4.742760  -0.377079   3.969960 -71.849000  19.201700   0.132916  -4.677450 -13.782400 -18.090700  15.221400  -7.079940  10.866200  41.087100  29.088200 -68.418300 -20.155700  -0.003876  -0.001348  -5.077840   0.000000  -0.002919 -25.695500   5.785450 -11.831200 -21.515800   0.005265   0.009133 -15.061100  -0.000425   0.004418 -27.553900  -0.371253   0.711870 -29.460500  -0.001007  -0.001772 -19.620700  -0.002340   0.000273 -25.049100  -0.339944   0.727836 -25.047500  -0.004703   0.000323 -16.681600  -0.003866  -0.007401 -27.726800  -0.373462   0.711202 -41.587900  -0.000867  -0.001289 -27.697500  -0.001119  -0.009747   9.032890   1.242510   6.503160  68.639800  11.890800   5.111870   0.717837  -6.521800  10.744500 -15.913200  -7.992320  -6.064550 -39.109200  38.493800  79.483200  30.029900  -0.000358  -0.017062  10.015000   0.000835  -0.002413  29.592000   0.308197   0.540773  24.219000  -0.004546  -0.000153  16.953300  -0.001706  -0.000759  27.212200  -1.395050  -2.712410  28.061900  -0.013803  -0.001059  18.689200  -0.002457  -0.005456  27.101800  -4.966610  -9.601580  29.331300   0.000058  -0.000321  19.534700   0.000000  -0.000192  37.988700  -6.696490  -8.492180  57.740300   0.001810  -0.002772  38.455100   0.001164  -0.000000   0.397829   4.311130   2.745560   0.933080   1.527860  11.742200  -5.778360  -4.034450   7.174510   0.000000   0.000000   0.000000   0.826363   4.852790  -9.060910   0.462640   1.912450 -10.233800  -8.999550  -0.147434   0.338968   0.000000   0.000000  -0.000000
 -0.521409  89.993300  -0.762576  -0.493824  -3.836200  -0.574195  -0.757267   3.445530   0.371700  -1.541150   6.885740   0.791249   1.533650   1.441720  -0.042066   2.523860   2.917020   8.208950  -4.793430  -0.384846   3.889050 -71.741800  19.113200   0.073169  -4.687900 -14.255800 -18.124900  15.243500  -7.196280  10.906400  41.076600  29.073700 -68.406600 -20.189500  -0.003893  -0.001377  -5.094750   0.000000  -0.002909 -25.688900   5.749240 -11.764000 -21.507100   0.005265   0.009135 -15.055000  -0.000424   0.004414 -27.554200  -0.388356   0.744525 -29.465000  -0.001094  -0.001772 -19.623700  -0.002338   0.000274 -25.057600  -0.355927   0.761568 -25.056400  -0.004698   0.000324 -16.687500  -0.003864  -0.007398 -27.730700  -0.390954   0.744236 -41.594600  -0.000850  -0.001288 -27.702000  -0.001125  -0.009745   9.014400   1.221810   6.512450  68.655200  12.507600   5.719810   0.782194  -6.469930  10.362100 -15.855300  -7.363670  -6.134700 -39.356900  38.864800  79.984800  29.912000  -0.000359  -0.017092   9.956020   0.000828  -0.002412  29.600600   0.397550   0.695988  24.228400  -0.004565  -0.000125  16.959800  -0.001713  -0.000663  27.208200  -1.292220  -2.514120  28.032800  -0.013847  -0.001004  18.669900  -0.002458  -0.005464  27.098200  -4.877700  -9.434550  29.250000   0.000105  -0.000243  19.480500   0.000025  -0.000152  37.969500  -6.575040  -8.346740  57.687900   0.001910  -0.002768  38.420200   0.001231   0.000000   0.401330   4.430340   2.748580   0.935804   1.523070  11.708700  -5.794610  -4.033940   7.162560   0.000000   0.000000   0.000000   0.840636   4.949240  -9.064530   0.453401   1.923990 -10.288100  -9.004940  -0.157587   0.349181  -0.000000   0.000000  -0.000000
 -0.555149  89.993100  -0.780129  -0.490805  -4.012940  -0.505806  -0.816730   3.563050   0.476264  -1.668020   7.118820   1.006410   1.528060   1.523330  -0.041976   2.514910   3.081900   8.395290  -4.884420  -0.439035   3.751010 -71.569600  18.956800  -0.023361  -4.698310 -15.090200 -18.173900  15.277600  -7.499740  11.002200  41.003200  28.972400 -68.325100 -20.253900  -0.003925  -0.001415  -5.126990   0.000000  -0.002879 -25.692600   5.690060 -11.642800 -21.498300   0.005267   0.009139 -15.048800  -0.000421   0.004405 -27.559300  -0.405458   0.777180 -29.496100  -0.001181  -0.001772 -19.644400  -0.002335   0.000275 -25.099100  -0.371909   0.795301 -25.099100  -0.004687   0.000327 -16.716000  -0.003862  -0.007388 -27.760900  -0.408445   0.777270 -41.641500  -0.000805  -0.001283 -27.733200  -0.001142  -0.009744   9.000030   1.158740   6.557390  68.632500  13.598900   6.748590   0.879844  -6.295100   9.781140 -15.739600  -6.218580  -6.241820 -39.757300  39.392500  80.761100  29.681200  -0.000363  -0.017161   9.840590   0.000814  -0.002408  29.606400   0.561548   0.982558  24.237700  -0.004610  -0.000079  16.966400  -0.001731  -0.000487  27.200400  -1.111160  -2.164320  27.977100  -0.013939  -0.000913  18.632800  -0.002461  -0.005486  27.091500  -4.722200  -9.142210  29.106300   0.000183  -0.000115  19.384800   0.000074  -0.000089  37.940200  -6.363380  -8.091420  57.602600   0.002076  -0.002757  38.363300   0.001342  -0.000000   0.407293   4.606440   2.757430   0.943864   1.518390  11.655000  -5.822270  -4.033220   7.143610  -0.000000   0.000000   0.000000   0.864209   5.103660  -9.069010   0.437775   1.955500 -10.372500  -9.014760  -0.174265   0.359395   0.000000   0.000000   0.000000
 -0.581426  89.993100  -0.801935  -0.487668  -4.165530  -0.469540  -0.866880   3.683560   0.589147  -1.777260   7.357550   1.238050   1.525280   1.584770  -0.042460   2.508420   3.206380   8.536120  -4.973790  -0.563095   3.633920 -71.440200  18.825500  -0.111016  -4.680740 -15.838700 -18.173600  15.295500  -7.964970  11.142100  40.785200  28.609200 -68.007700 -20.342700  -0.003957  -0.001423  -5.171380  -0.000030  -0.002828 -25.764700   5.644200 -11.516600 -21.547600   0.005269   0.009140 -15.083300  -0.000413   0.004391 -27.591200  -0.330138   0.631913 -29.665500  -0.001156  -0.001772 -19.757200  -0.002330   0.000277 -25.196800  -0.303541   0.646670 -25.198300  -0.004670   0.000332 -16.782100  -0.003862  -0.007372 -27.860000  -0.333279   0.631875 -41.792100  -0.000733  -0.001272 -27.833500  -0.001168  -0.009745   9.027920   1.045790   6.646510  68.559000  14.574200   7.589580   0.942584  -6.012780   9.427070 -15.526000  -5.019960  -6.301310 -39.961000  39.584000  81.149800  29.443400  -0.000377  -0.017256   9.721680   0.000802  -0.002403  29.589200   0.723327   1.268280  24.226200  -0.004676  -0.000030  16.958300  -0.001761  -0.000259  27.193200  -0.945919  -1.843460  27.915700  -0.014063  -0.000822  18.591900  -0.002470  -0.005519  27.084100  -4.584390  -8.882950  28.965000   0.000261   0.000012  19.290600   0.000148  -0.000032  37.917100  -6.176850  -7.863760  57.523200   0.002240  -0.002740  38.310400   0.001453   0.000074   0.411113   4.683680   2.773820   0.958538   1.588590  11.615100  -5.846010  -4.032840   7.130000   0.000000   0.000000   0.000000   0.881295   5.205660  -9.053160   0.423977   2.013740 -10.431800  -9.024410  -0.187084   0.356947  -0.000000   0.000000   0.000000
 -0.607665  89.993500  -0.828775  -0.485305  -4.328290  -0.445081  -0.919564   3.824430   0.715567  -1.893380   7.636530   1.497720   1.524220   1.643360  -0.043657   2.509430   3.325170   8.690190  -5.066090  -0.755577   3.512840 -71.328100  18.658200  -0.161717  -4.671800 -16.671200 -18.203000  15.293300  -8.575850  11.313600  40.563100  28.187500 -67.629700 -20.400900  -0.003999  -0.001427  -5.200440  -0.000071  -0.002769 -25.835100   5.601850 -11.398500 -21.596800   0.005273   0.009140 -15.117700  -0.000404   0.004373 -27.632300  -0.254812   0.486649 -29.885400  -0.001005  -0.001769 -19.903700  -0.002323   0.000278 -25.315200  -0.235166   0.498042 -25.318300  -0.004649   0.000339 -16.862000  -0.003862  -0.007351 -27.983800  -0.258106   0.486484 -41.980300  -0.000642  -0.001256 -27.958900  -0.001202  -0.009747   9.088290   0.903724   6.788370  68.399600  15.699000   8.465490   0.985974  -5.540610   9.156860 -15.246200  -3.859800  -6.360260 -40.250900  39.796500  81.559000  29.126700  -0.000395  -0.017373   9.563340   0.000785  -0.002395  29.552500   0.905323   1.591630  24.198700  -0.004751  -0.000000  16.939100  -0.001796  -0.000112  27.183900  -0.769494  -1.500290  27.848900  -0.014186  -0.000767  18.547400  -0.002479  -0.005562  27.080000  -4.434480  -8.598890  28.833000   0.000308   0.000088  19.202700   0.000196  -0.000000  37.910500  -5.975420  -7.612630  57.476700   0.002338  -0.002719  38.279500   0.001519   0.000195   0.417538   4.766230   2.792220   0.973148   1.682620  11.581200  -5.869620  -4.032710   7.118560  -0.000000   0.000000  -0.000000   0.899810   5.316970  -9.037480   0.411556   2.072200 -10.474700  -9.035000  -0.199632   0.354499  -0.000000   0.000000  -0.000000
